<svg width="24" height="25" viewBox="0 0 24 25" fill="none" xmlns="http://www.w3.org/2000/svg">
<mask id="mask0_539_3806" style="mask-type:alpha" maskUnits="userSpaceOnUse" x="0" y="0" width="24" height="25">
<rect y="0.5" width="24" height="24" fill="#D9D9D9"/>
</mask>
<g mask="url(#mask0_539_3806)">
<path d="M12 21.5C9.7 21.5 7.69583 20.7375 5.9875 19.2125C4.27917 17.6875 3.3 15.7833 3.05 13.5H5.1C5.33333 15.2333 6.10417 16.6667 7.4125 17.8C8.72083 18.9333 10.25 19.5 12 19.5C13.95 19.5 15.6042 18.8208 16.9625 17.4625C18.3208 16.1042 19 14.45 19 12.5C19 10.55 18.3208 8.89583 16.9625 7.5375C15.6042 6.17917 13.95 5.5 12 5.5C10.85 5.5 9.775 5.76667 8.775 6.3C7.775 6.83333 6.93333 7.56667 6.25 8.5H9V10.5H3V4.5H5V6.85C5.85 5.78333 6.8875 4.95833 8.1125 4.375C9.3375 3.79167 10.6333 3.5 12 3.5C13.25 3.5 14.4208 3.7375 15.5125 4.2125C16.6042 4.6875 17.5542 5.32917 18.3625 6.1375C19.1708 6.94583 19.8125 7.89583 20.2875 8.9875C20.7625 10.0792 21 11.25 21 12.5C21 13.75 20.7625 14.9208 20.2875 16.0125C19.8125 17.1042 19.1708 18.0542 18.3625 18.8625C17.5542 19.6708 16.6042 20.3125 15.5125 20.7875C14.4208 21.2625 13.25 21.5 12 21.5ZM14.8 16.7L11 12.9V7.5H13V12.1L16.2 15.3L14.8 16.7Z" fill="white"/>
</g>
</svg>
