<svg width="83" height="22" viewBox="0 0 83 22" fill="none" xmlns="http://www.w3.org/2000/svg">
    <g clipPath="url(#clip0_44_212)">
        <path
            d="M22.2704 9.88031V7.92552H19.7573V10.0183C17.7487 10.4035 16.8216 11.4211 15.9207 12.8729C15.7167 11.332 15.6933 10.3863 15.6933 10.1074V9.39161C15.6933 9.39161 15.1336 9.40886 14.4368 9.40886H12.9821L12.9325 9.85156C12.6556 12.387 11.7868 14.224 10.3612 15.3393C8.6936 16.6445 7.16595 16.4605 6.31467 16.4605C4.95612 16.3829 4.21562 15.9603 3.65587 15.4543C2.5976 14.4942 2.56262 13.2149 2.54512 12.9706C2.52763 12.7291 2.49848 12.2117 2.50139 11.6224C2.50431 10.1965 2.60926 7.99739 2.72588 5.97648C2.86873 3.50712 3.09029 0.494446 3.09029 0.494446H0.279897L0.25949 1.05501C0.241998 1.52933 0.0758228 5.7465 0.0116851 8.82817C-0.0553679 12.0996 0.142876 13.6318 0.151622 13.695C0.454818 15.4083 1.25362 16.7163 2.52763 17.573C5.09605 19.2978 8.67027 18.6079 8.82187 18.5762C10.8422 18.0617 12.4515 16.9377 13.6351 15.2416C13.9004 16.6818 14.1686 17.4034 14.1803 17.4379L14.326 17.8202L16.6321 17.4982C16.6321 17.4982 16.6467 17.1245 16.67 16.906C16.7021 16.6128 16.8099 15.9833 16.9295 15.5406C17.4717 13.5369 18.5271 12.6314 19.7603 12.2433V15.0691C19.7603 17.5874 19.0227 18.628 18.3609 19.4789C17.8186 20.1803 16.5446 20.5052 16.5446 20.5052L16.8741 21.0427L17.4921 21.9971L17.8274 21.9281C19.1305 21.6637 20.1509 20.9306 20.8827 19.7549C22.8534 19.7204 24.3228 19.1684 25.384 18.1048C26.7892 16.6991 26.7921 15.0116 26.7921 14.5948C26.7921 10.9209 23.7776 10.0844 22.2704 9.87456V9.88031ZM23.1333 17.0584C22.7135 17.3804 22.2616 17.5586 21.7864 17.6707C22.0546 16.7479 22.2675 15.6009 22.2675 14.6724C22.2675 14.086 22.2675 12.8901 22.2675 12.0766C22.6698 12.1628 23.2062 12.3813 23.559 12.7205C23.7047 12.8614 24.2791 13.4219 24.2791 14.635C24.2791 15.4371 24.1654 16.2679 23.1333 17.0584Z"
            fill="white" />
        <path
            d="M72.84 6.26394L72.9945 8.29347L73.5747 8.16124C74.4814 7.96001 76.3618 7.53743 79.9389 7.84215C80.4724 7.88814 81.1109 7.99163 81.449 8.052C81.7872 8.11237 82.449 8.2446 82.449 8.2446L82.6618 5.62289L82.172 5.56539C79.2567 5.21756 76.3413 5.41016 73.2598 6.15758L72.8371 6.26107L72.84 6.26394Z"
            fill="white" />
        <path
            d="M74.7262 2.48373C74.7262 2.48373 72.5689 2.55847 71.5951 2.5786C71.6534 2.13877 71.8371 0.678427 71.8371 0.678427L71.91 0H69.3124L69.2629 0.563439C69.2395 0.767542 69.1433 1.63857 68.9888 2.68209C68.1783 2.72233 66.2542 2.7942 65.9831 2.81145C65.7848 2.82582 65.4787 2.84594 65.4787 2.84594V4.97609C65.4787 4.97609 68.1404 4.97896 68.6477 4.97896C68.0967 8.00601 67.1142 12.2289 65.5749 15.7332L65.3738 16.173L67.1988 17.0757L67.432 16.6416C69.2075 13.3443 70.3765 9.73945 71.2132 4.98471C71.5893 4.98471 74.5659 4.98759 74.5659 4.98759L74.7291 2.48661L74.7262 2.48373Z"
            fill="white" />
        <path
            d="M79.6357 16.1213C77.3151 16.61 75.2335 16.0235 74.6883 14.7242C74.6883 14.7184 74.2423 13.6347 75.2189 12.0651L75.6941 11.3924H73.2919C72.1578 12.7033 72.0325 13.9307 72.0062 14.293C71.8401 16.6416 73.6884 18.5734 77.0381 18.7286C80.7085 18.9011 82.4461 17.7225 82.5977 17.6276C82.7464 17.5327 82.8105 17.4867 82.8105 17.4867L83 14.5718C83 14.5718 82.3994 14.9685 81.9913 15.2129C81.5861 15.4572 80.5744 15.9229 79.6357 16.1213Z"
            fill="white" />
        <path
            d="M60.4235 1.36835C60.4235 1.36835 59.2778 1.42009 58.7938 1.44309C58.718 1.13837 58.6597 0.747413 58.6189 0.531812L58.5373 0.00286865H56.0826L56.2196 0.836529C56.2604 1.08088 56.31 1.36547 56.3362 1.52358C54.6453 1.61269 52.4005 1.69894 51.4122 1.75643V4.03893L56.9105 3.81183C57.0738 4.45864 57.1991 5.05657 57.3799 5.60564C55.3246 6.05696 52.6804 6.48529 49.4356 6.57441C49.4093 6.57441 49.4035 6.57728 49.4035 6.58016V9.16163L49.523 9.15013C53.3509 9.07826 56.2633 8.5062 58.2953 7.95139C58.5664 8.5407 58.8026 9.04377 59.0533 9.46635C57.9047 9.30824 56.6802 9.29674 55.4849 9.45485C50.1702 10.1534 49.9079 13.5858 49.9079 13.9767V14.0084V14.0199C49.9079 16.9607 53.1235 18.352 56.0418 18.6711C59.7705 19.0793 62.5022 17.757 62.6159 17.7023L62.9016 17.5701L63.1086 14.3907C63.1086 14.3907 62.6275 14.865 61.9541 15.2732C61.0357 15.828 59.6539 16.2794 57.9251 16.3024H57.6015C56.2983 16.3024 55.2196 16.081 54.3975 15.6469C53.3625 15.1697 52.7707 14.5287 52.762 13.879C52.7445 12.5509 55.1263 11.355 57.8609 11.3176C59.0621 11.3004 60.3186 11.6367 61.6013 12.3152C61.6042 12.3152 61.9949 12.5221 61.9949 12.5221C61.9949 12.5221 62.4205 12.1571 62.8928 11.8207C63.3505 11.493 63.919 11.1308 63.919 11.1308L63.4817 10.7082C62.4468 9.72794 61.5926 8.41996 60.89 7.05736C61.2311 6.905 61.4439 6.80438 61.5401 6.75839C62.4439 6.33294 63.9773 5.5424 63.9773 3.90382V3.87795C63.9773 3.20527 63.7849 2.64758 63.3301 2.22213C62.3156 1.27923 60.6276 1.35685 60.4352 1.36835H60.4235ZM61.473 4.40402C61.234 4.50463 60.8579 4.64549 59.9221 4.93009C59.7559 4.50751 59.6014 4.09643 59.4673 3.69972C60.0678 3.67385 61.2486 3.6221 61.2486 3.6221C61.648 3.6106 62.2194 3.69972 62.4672 3.8722C62.2835 3.98431 61.8229 4.25741 61.476 4.40689L61.473 4.40402Z"
            fill="white" />
        <path
            d="M41.3192 9.37723C40.8994 8.9719 40.3834 8.38546 40.3601 8.35672C39.8907 7.79328 39.949 7.20109 39.949 7.00849C39.949 5.5194 42.4912 3.95557 43.4504 3.50137L44.1909 3.14778L43.5407 2.64758C39.296 -0.618065 33.4391 1.21599 33.1913 1.2936L32.8443 1.40572L32.8152 3.78883L33.5207 3.52436C33.5528 3.51286 36.6605 2.40611 39.9228 3.45825C38.7042 4.3494 37.9812 5.38429 37.7742 6.55141C37.7334 6.78139 37.713 7.01711 37.713 7.25571C37.713 9.00065 38.8295 10.3288 38.8762 10.3862C40.2726 11.9673 40.5671 13.2121 40.5671 13.9767C40.5671 14.6034 40.4067 14.9829 40.1531 15.3566C39.2727 16.6588 37.4797 16.5295 37.3894 16.5208C35.8209 16.4576 34.8997 15.7188 34.8909 15.7102L34.8734 15.6958L34.8676 15.6901C33.7073 14.8248 33.5003 13.4392 33.4711 12.3813C33.4536 11.677 33.6781 10.6047 33.8385 9.99816L34.0017 9.3916L31.1651 9.35998C31.1651 9.35998 31.1243 9.70207 31.1068 9.81418C31.0456 10.2425 30.5529 12.5998 28.1798 15.8223C27.9728 16.104 27.9669 16.1011 27.3401 16.9118L28.929 18.1594C28.929 18.1594 29.2293 17.9151 29.41 17.7541C29.6695 17.5212 30.5791 16.7652 31.7773 14.8679C32.754 18.7487 37.2407 18.9097 37.2873 18.9097C41.707 18.9442 42.7769 15.9689 42.8265 15.8165C43.1122 15.1094 43.2288 14.4309 43.2288 13.7985C43.2288 11.4758 41.6516 9.7107 41.3134 9.38298L41.3192 9.37723Z"
            fill="white" />
        <path
            d="M45.3891 9.58997C45.2113 9.42611 44.876 9.19614 44.876 9.19614L43.2026 10.4984L43.5233 10.9152C46.4911 14.658 47.0421 17.4695 47.1062 17.8432L47.1587 18.1709C47.1587 18.1709 49.6018 17.2194 50.0711 17.0297C49.5959 15.7246 48.6047 13.6663 47.8905 12.5624C46.6573 10.6594 45.6865 9.86594 45.3891 9.59284V9.58997Z"
            fill="white" />
    </g>
    <defs>
        <clipPath id="clip0_44_212">
            <rect width="83" height="22" fill="white" />
        </clipPath>
    </defs>
</svg>
    
