<svg width="42" height="42" viewBox="0 0 42 42" fill="none" xmlns="http://www.w3.org/2000/svg">
<circle cx="21" cy="21" r="21" fill="#DB616E"/>
<g clip-path="url(#clip0_8_752)">
<path d="M34.64 20.07C34.64 12.57 28.56 6.5 21.07 6.5C13.58 6.5 7.5 12.57 7.5 20.07C7.5 26.41 11.84 31.73 17.71 33.22L21.06 37.24L24.41 33.22C30.28 31.73 34.62 26.41 34.62 20.07H34.64Z" stroke="white" stroke-linecap="round" stroke-linejoin="round"/>
<path d="M26.38 20.54C26.28 19.65 26.28 18.79 26.38 18.03C26.4 17.84 26.41 17.65 26.41 17.46C26.41 14.51 24.02 12.13 21.08 12.13C18.14 12.13 15.75 14.52 15.75 17.46C15.75 17.65 15.76 17.84 15.78 18.03C15.87 18.8 15.88 19.65 15.78 20.54C15.49 23.01 14.47 25.01 13.31 25.61H28.87C27.71 25.01 26.69 23.01 26.4 20.54H26.38Z" stroke="white" stroke-linecap="round" stroke-linejoin="round"/>
<path d="M18.65 25.61C18.73 27.08 19.78 28.25 21.07 28.25C22.36 28.25 23.41 27.08 23.49 25.61H18.65Z" stroke="white" stroke-linecap="round" stroke-linejoin="round"/>
<path d="M21.07 12.12C21.37 12.12 21.66 12.15 21.94 12.19V11.03C21.94 10.55 21.55 10.16 21.07 10.16C20.59 10.16 20.2 10.55 20.2 11.03V12.19C20.48 12.14 20.77 12.12 21.07 12.12Z" stroke="white" stroke-linecap="round" stroke-linejoin="round"/>
</g>
<defs>
<clipPath id="clip0_8_752">
<rect width="28.14" height="31.74" fill="white" transform="translate(7 6)"/>
</clipPath>
</defs>
</svg>
