<svg width="42" height="42" viewBox="0 0 42 42" fill="none" xmlns="http://www.w3.org/2000/svg">
<circle cx="21" cy="21" r="21" fill="#6086DD"/>
<g clip-path="url(#clip0_8_486)">
<path d="M35.9835 14.1334H7.00919V33.6375H35.9835V14.1334Z" stroke="white" stroke-linecap="round" stroke-linejoin="round"/>
<path d="M12.2088 28.4896C10.4756 30.1717 8.74239 31.8466 7.01651 33.5287" stroke="white" stroke-linecap="round" stroke-linejoin="round"/>
<path d="M36.6344 9.91357H6.36566V14.1262H36.6344V9.91357Z" stroke="white" stroke-linecap="round" stroke-linejoin="round"/>
<mask id="path-5-inside-1_8_486" fill="white">
<path d="M9.45906 9H7.93063V9.91357H9.45906V9Z"/>
</mask>
<path d="M9.45906 9H7.93063V9.91357H9.45906V9Z" fill="#040000"/>
<path d="M7.93063 9V8H6.93063V9H7.93063ZM9.45906 9H10.4591V8H9.45906V9ZM9.45906 9.91357V10.9136H10.4591V9.91357H9.45906ZM7.93063 9.91357H6.93063V10.9136H7.93063V9.91357ZM7.93063 10H9.45906V8H7.93063V10ZM8.45906 9V9.91357H10.4591V9H8.45906ZM9.45906 8.91357H7.93063V10.9136H9.45906V8.91357ZM8.93063 9.91357V9H6.93063V9.91357H8.93063Z" fill="white" mask="url(#path-5-inside-1_8_486)"/>
<mask id="path-7-inside-2_8_486" fill="white">
<path d="M18.0007 9H16.4723V9.91357H18.0007V9Z"/>
</mask>
<path d="M18.0007 9H16.4723V9.91357H18.0007V9Z" fill="#040000"/>
<path d="M16.4723 9V8H15.4723V9H16.4723ZM18.0007 9H19.0007V8H18.0007V9ZM18.0007 9.91357V10.9136H19.0007V9.91357H18.0007ZM16.4723 9.91357H15.4723V10.9136H16.4723V9.91357ZM16.4723 10H18.0007V8H16.4723V10ZM17.0007 9V9.91357H19.0007V9H17.0007ZM18.0007 8.91357H16.4723V10.9136H18.0007V8.91357ZM17.4723 9.91357V9H15.4723V9.91357H17.4723Z" fill="white" mask="url(#path-7-inside-2_8_486)"/>
<mask id="path-9-inside-3_8_486" fill="white">
<path d="M33.5409 9.91357H35.0694V9H33.5409V9.91357Z"/>
</mask>
<path d="M33.5409 9.91357H35.0694V9H33.5409V9.91357Z" fill="#040000"/>
<path d="M35.0694 9.91357V10.9136H36.0694V9.91357H35.0694ZM33.5409 9.91357H32.5409V10.9136H33.5409V9.91357ZM33.5409 9V8H32.5409V9H33.5409ZM35.0694 9H36.0694V8H35.0694V9ZM35.0694 8.91357H33.5409V10.9136H35.0694V8.91357ZM34.5409 9.91357V9H32.5409V9.91357H34.5409ZM33.5409 10H35.0694V8H33.5409V10ZM34.0694 9V9.91357H36.0694V9H34.0694Z" fill="white" mask="url(#path-9-inside-3_8_486)"/>
<mask id="path-11-inside-4_8_486" fill="white">
<path d="M24.9993 9.91357H26.5277V9H24.9993V9.91357Z"/>
</mask>
<path d="M24.9993 9.91357H26.5277V9H24.9993V9.91357Z" fill="#040000"/>
<path d="M26.5277 9.91357V10.9136H27.5277V9.91357H26.5277ZM24.9993 9.91357H23.9993V10.9136H24.9993V9.91357ZM24.9993 9V8H23.9993V9H24.9993ZM26.5277 9H27.5277V8H26.5277V9ZM26.5277 8.91357H24.9993V10.9136H26.5277V8.91357ZM25.9993 9.91357V9H23.9993V9.91357H25.9993ZM24.9993 10H26.5277V8H24.9993V10ZM25.5277 9V9.91357H27.5277V9H25.5277Z" fill="white" mask="url(#path-11-inside-4_8_486)"/>
<path d="M35.9908 26.2129H26.4326V33.536H35.9908V26.2129Z" stroke="white" stroke-linecap="round" stroke-linejoin="round"/>
<path d="M18.4322 17.5485H13.3716V24.1247H18.4322V17.5485Z" stroke="white" stroke-linecap="round" stroke-linejoin="round"/>
<path d="M27.164 17.5485H19.712V24.1247H27.164V17.5485Z" stroke="white" stroke-linecap="round" stroke-linejoin="round"/>
<path d="M8.0696 20.1877C8.97642 20.0934 9.89055 19.9992 10.7974 19.8976V23.1822C9.89055 23.4794 8.99104 23.7767 8.08423 24.0667C8.08423 22.7761 8.0696 21.4783 8.06229 20.1877H8.0696Z" stroke="white" stroke-linecap="round" stroke-linejoin="round"/>
<path d="M32.4513 22.5151C32.2246 22.4353 31.9028 22.3628 31.486 22.3556C31.4494 22.3556 31.4202 22.3556 31.3909 22.3556C31.3543 22.3556 31.3251 22.3556 31.2958 22.3556C30.8863 22.3628 30.5645 22.4353 30.3305 22.5151C29.0215 22.9864 28.3048 24.451 28.5169 26.1839H34.2722C34.477 24.451 33.7676 22.9936 32.4586 22.5151H32.4513Z" stroke="white" stroke-linecap="round" stroke-linejoin="round"/>
<path d="M31.3909 21.7103C32.2633 21.7103 32.9705 21.0091 32.9705 20.1441C32.9705 19.2792 32.2633 18.578 31.3909 18.578C30.5185 18.578 29.8113 19.2792 29.8113 20.1441C29.8113 21.0091 30.5185 21.7103 31.3909 21.7103Z" stroke="white" stroke-linecap="round" stroke-linejoin="round"/>
<path d="M32.4513 22.5151C32.2246 22.4353 31.9028 22.3628 31.486 22.3556C31.4494 22.3556 31.4202 22.3556 31.3909 22.3556C31.3543 22.3556 31.3251 22.3556 31.2958 22.3556C30.8863 22.3628 30.5645 22.4353 30.3305 22.5151C29.0215 22.9864 28.3048 24.451 28.5169 26.1839H34.2722C34.477 24.451 33.7676 22.9936 32.4586 22.5151H32.4513Z" stroke="white" stroke-linecap="round" stroke-linejoin="round"/>
<path d="M30.385 22.3817C30.5093 22.3382 30.6702 22.2947 30.8457 22.2657V21.4608C30.268 21.2288 29.8585 20.6633 29.8585 20.0107C29.8585 19.3582 30.268 18.7926 30.8457 18.5606V14H12V28.4649H26.4798V26.0795H30.8457V26.0505H28.564C28.3593 24.3176 29.0686 22.8602 30.3777 22.3817H30.385Z" stroke="white" stroke-linecap="round" stroke-linejoin="round"/>
</g>
<defs>
<clipPath id="clip0_8_486">
<rect width="31" height="25" fill="white" transform="translate(6 9)"/>
</clipPath>
</defs>
</svg>
