<svg width="42" height="42" viewBox="0 0 42 42" fill="none" xmlns="http://www.w3.org/2000/svg">
<circle cx="21" cy="21" r="21" fill="#378182"/>
<g clip-path="url(#clip0_8_404)">
<path d="M13.4647 28.9223C13.7319 27.7563 13.0306 26.5878 11.8983 26.3126C10.766 26.0374 9.63146 26.7596 9.36421 27.9257C9.09696 29.0918 9.79823 30.2602 10.9305 30.5354C12.0628 30.8106 13.1974 30.0884 13.4647 28.9223Z" stroke="white" stroke-linecap="round" stroke-linejoin="round"/>
<path d="M12.8279 30.5048C12.6885 30.4542 12.5246 30.4035 12.3361 30.3698C12.0574 30.5133 11.7459 30.5892 11.418 30.5892C11.0902 30.5892 10.7787 30.5048 10.5 30.3698C10.3115 30.412 10.1475 30.4542 10.0082 30.5048C8.26229 31.1548 7.31967 33.1807 7.59016 35.5695H15.2459C15.5246 33.1807 14.5738 31.1548 12.8279 30.5048Z" stroke="white" stroke-linecap="round" stroke-linejoin="round"/>
<path d="M21.2893 28.9187C21.5565 27.7526 20.8553 26.5842 19.7229 26.309C18.5906 26.0337 17.4561 26.7559 17.1888 27.922C16.9216 29.0881 17.6228 30.2565 18.7552 30.5317C19.8875 30.8069 21.022 30.0848 21.2893 28.9187Z" stroke="white" stroke-linecap="round" stroke-linejoin="round"/>
<path d="M20.6557 30.5048C20.5164 30.4542 20.3525 30.4035 20.1639 30.3698C19.8853 30.5133 19.5738 30.5892 19.2459 30.5892C18.918 30.5892 18.6066 30.5048 18.3279 30.3698C18.1394 30.412 17.9754 30.4542 17.8361 30.5048C16.0902 31.1548 15.1475 33.1807 15.418 35.5695H23.0738C23.3525 33.1807 22.4016 31.1548 20.6557 30.5048Z" stroke="white" stroke-linecap="round" stroke-linejoin="round"/>
<path d="M29.1202 28.9232C29.3875 27.7571 28.6862 26.5887 27.5539 26.3135C26.4216 26.0383 25.287 26.7604 25.0198 27.9265C24.7525 29.0926 25.4538 30.261 26.5861 30.5362C27.7184 30.8115 28.853 30.0893 29.1202 28.9232Z" stroke="white" stroke-linecap="round" stroke-linejoin="round"/>
<path d="M28.4918 30.5048C28.3525 30.4542 28.1885 30.4035 28 30.3698C27.7213 30.5133 27.4098 30.5892 27.082 30.5892C26.7541 30.5892 26.4426 30.5048 26.1639 30.3698C25.9754 30.412 25.8115 30.4542 25.6721 30.5048C23.9262 31.1548 22.9836 33.1807 23.2541 35.5695H30.9098C31.1885 33.1807 30.2377 31.1548 28.4918 30.5048Z" stroke="white" stroke-linecap="round" stroke-linejoin="round"/>
<path d="M36.7913 11.2193C37.0202 10.2163 36.4163 9.21214 35.4424 8.97635C34.4685 8.74056 33.4934 9.36246 33.2645 10.3654C33.0355 11.3684 33.6394 12.3725 34.6133 12.6083C35.5872 12.8441 36.5623 12.2222 36.7913 11.2193Z" stroke="white" stroke-linecap="round" stroke-linejoin="round"/>
<path d="M37.1393 13.7997H32.9918C32.8442 13.7997 32.7213 13.8756 32.6393 13.9854L31.459 14.4834L30.0082 13.8503C29.6721 13.6984 29.2787 13.8672 29.1393 14.2133C28.9918 14.5594 29.1557 14.9645 29.4918 15.108L31.1967 15.8593C31.2787 15.8931 31.3688 15.91 31.459 15.91C31.5492 15.91 31.6311 15.8931 31.7131 15.8593L32.5492 15.5048V20.1812C32.5492 20.4429 32.7541 20.6455 33 20.6455H33.6393V25.4569C33.6393 25.7186 33.8442 25.9212 34.0902 25.9212H36.0574C36.3115 25.9212 36.5082 25.7102 36.5082 25.4569V20.6455H37.1475C37.4016 20.6455 37.5983 20.4344 37.5983 20.1812V14.2639C37.5983 14.0022 37.3934 13.7997 37.1475 13.7997H37.1393Z" stroke="white" stroke-linecap="round" stroke-linejoin="round"/>
<mask id="path-10-inside-1_8_404" fill="white">
<path d="M27.7541 9.54529H20.2459C20.1282 9.54529 20.0328 9.64355 20.0328 9.76476V10.0518C20.0328 10.173 20.1282 10.2712 20.2459 10.2712H27.7541C27.8718 10.2712 27.9672 10.173 27.9672 10.0518V9.76476C27.9672 9.64355 27.8718 9.54529 27.7541 9.54529Z"/>
</mask>
<path d="M27.7541 9.54529H20.2459C20.1282 9.54529 20.0328 9.64355 20.0328 9.76476V10.0518C20.0328 10.173 20.1282 10.2712 20.2459 10.2712H27.7541C27.8718 10.2712 27.9672 10.173 27.9672 10.0518V9.76476C27.9672 9.64355 27.8718 9.54529 27.7541 9.54529Z" fill="#040000"/>
<path d="M20.2459 10.5453H27.7541V8.54529H20.2459V10.5453ZM27.7541 10.5453C27.292 10.5453 26.9672 10.1679 26.9672 9.76476H28.9672C28.9672 9.11917 28.4516 8.54529 27.7541 8.54529V10.5453ZM26.9672 9.76476V10.0518H28.9672V9.76476H26.9672ZM26.9672 10.0518C26.9672 9.64859 27.292 9.27123 27.7541 9.27123V11.2712C28.4516 11.2712 28.9672 10.6974 28.9672 10.0518H26.9672ZM27.7541 9.27123H20.2459V11.2712H27.7541V9.27123ZM20.2459 9.27123C20.708 9.27123 21.0328 9.64859 21.0328 10.0518H19.0328C19.0328 10.6974 19.5484 11.2712 20.2459 11.2712V9.27123ZM21.0328 10.0518V9.76476H19.0328V10.0518H21.0328ZM21.0328 9.76476C21.0328 10.1679 20.708 10.5453 20.2459 10.5453V8.54529C19.5484 8.54529 19.0328 9.11917 19.0328 9.76476H21.0328Z" fill="white" mask="url(#path-10-inside-1_8_404)"/>
<mask id="path-12-inside-2_8_404" fill="white">
<path d="M27.7541 11.816H20.2459C20.1282 11.816 20.0328 11.9142 20.0328 12.0355V12.3225C20.0328 12.4437 20.1282 12.5419 20.2459 12.5419H27.7541C27.8718 12.5419 27.9672 12.4437 27.9672 12.3225V12.0355C27.9672 11.9142 27.8718 11.816 27.7541 11.816Z"/>
</mask>
<path d="M27.7541 11.816H20.2459C20.1282 11.816 20.0328 11.9142 20.0328 12.0355V12.3225C20.0328 12.4437 20.1282 12.5419 20.2459 12.5419H27.7541C27.8718 12.5419 27.9672 12.4437 27.9672 12.3225V12.0355C27.9672 11.9142 27.8718 11.816 27.7541 11.816Z" fill="#040000"/>
<path d="M20.2459 12.816H27.7541V10.816H20.2459V12.816ZM27.7541 12.816C27.292 12.816 26.9672 12.4386 26.9672 12.0355H28.9672C28.9672 11.3899 28.4516 10.816 27.7541 10.816V12.816ZM26.9672 12.0355V12.3225H28.9672V12.0355H26.9672ZM26.9672 12.3225C26.9672 11.9193 27.292 11.5419 27.7541 11.5419V13.5419C28.4516 13.5419 28.9672 12.968 28.9672 12.3225H26.9672ZM27.7541 11.5419H20.2459V13.5419H27.7541V11.5419ZM20.2459 11.5419C20.708 11.5419 21.0328 11.9193 21.0328 12.3225H19.0328C19.0328 12.968 19.5484 13.5419 20.2459 13.5419V11.5419ZM21.0328 12.3225V12.0355H19.0328V12.3225H21.0328ZM21.0328 12.0355C21.0328 12.4386 20.708 12.816 20.2459 12.816V10.816C19.5484 10.816 19.0328 11.3899 19.0328 12.0355H21.0328Z" fill="white" mask="url(#path-12-inside-2_8_404)"/>
<mask id="path-14-inside-3_8_404" fill="white">
<path d="M27.7541 13.9009H20.2459C20.1282 13.9009 20.0328 13.9992 20.0328 14.1204V14.4074C20.0328 14.5286 20.1282 14.6269 20.2459 14.6269H27.7541C27.8718 14.6269 27.9672 14.5286 27.9672 14.4074V14.1204C27.9672 13.9992 27.8718 13.9009 27.7541 13.9009Z"/>
</mask>
<path d="M27.7541 13.9009H20.2459C20.1282 13.9009 20.0328 13.9992 20.0328 14.1204V14.4074C20.0328 14.5286 20.1282 14.6269 20.2459 14.6269H27.7541C27.8718 14.6269 27.9672 14.5286 27.9672 14.4074V14.1204C27.9672 13.9992 27.8718 13.9009 27.7541 13.9009Z" fill="#040000"/>
<path d="M20.2459 14.9009H27.7541V12.9009H20.2459V14.9009ZM27.7541 14.9009C27.292 14.9009 26.9672 14.5236 26.9672 14.1204H28.9672C28.9672 13.4748 28.4516 12.9009 27.7541 12.9009V14.9009ZM26.9672 14.1204V14.4074H28.9672V14.1204H26.9672ZM26.9672 14.4074C26.9672 14.0042 27.292 13.6269 27.7541 13.6269V15.6269C28.4516 15.6269 28.9672 15.053 28.9672 14.4074H26.9672ZM27.7541 13.6269H20.2459V15.6269H27.7541V13.6269ZM20.2459 13.6269C20.708 13.6269 21.0328 14.0042 21.0328 14.4074H19.0328C19.0328 15.053 19.5484 15.6269 20.2459 15.6269V13.6269ZM21.0328 14.4074V14.1204H19.0328V14.4074H21.0328ZM21.0328 14.1204C21.0328 14.5236 20.708 14.9009 20.2459 14.9009V12.9009C19.5484 12.9009 19.0328 13.4748 19.0328 14.1204H21.0328Z" fill="white" mask="url(#path-14-inside-3_8_404)"/>
<path d="M17.4016 9.73102H10.8361C10.7501 9.73102 10.6803 9.80282 10.6803 9.8914V18.4592C10.6803 18.5478 10.7501 18.6196 10.8361 18.6196H17.4016C17.4877 18.6196 17.5574 18.5478 17.5574 18.4592V9.8914C17.5574 9.80282 17.4877 9.73102 17.4016 9.73102Z" stroke="white" stroke-linecap="round" stroke-linejoin="round"/>
<path d="M20.7295 18.204V16.6548H21.0246V18.204H20.7295Z" fill="#040000" stroke="white"/>
<path d="M22.8115 18.204V16.6548H23.1065V18.204H22.8115Z" fill="#040000" stroke="white"/>
<path d="M24.8934 18.204V16.6548H25.1885V18.204H24.8934Z" fill="#040000" stroke="white"/>
<path d="M26.9836 18.204V16.6548H27.2787V18.204H26.9836Z" fill="#040000" stroke="white"/>
<path d="M29.4836 15.1165C29.1476 14.9645 28.9918 14.5678 29.1312 14.2217C29.2705 13.8756 29.6639 13.7152 30 13.8587L30.918 14.2639V6.42206H7.40985V21.8272H30.9262V15.7411L29.4836 15.108V15.1165Z" stroke="white" stroke-linecap="round" stroke-linejoin="round"/>
</g>
<defs>
<clipPath id="clip0_8_404">
<rect width="31" height="30" fill="white" transform="translate(7 6)"/>
</clipPath>
</defs>
</svg>
